<svg width="370" height="614" viewBox="0 0 370 614" fill="none" xmlns="http://www.w3.org/2000/svg">
<path d="M15.9999 614.001C24.8364 614.001 31.9999 606.838 32 598.001C32.0001 589.165 24.8367 582.001 16.0001 582.001C7.16359 582.001 8.26641e-05 589.164 0 598.001C-8.26641e-05 606.837 7.16329 614.001 15.9999 614.001ZM16.0053 32.0001C24.8419 32.0002 32.0054 24.8368 32.0054 16.0003C32.0055 7.16372 24.8422 0.000204734 16.0056 0.00012207C7.16904 3.94062e-05 0.00552716 7.16342 0.00544449 16C0.00536183 24.8365 7.16874 32 16.0053 32.0001ZM231.501 295.234L234.265 296.401L231.501 295.234ZM84.865 428.801L85.6065 431.708L84.865 428.801ZM354.621 138.514L352.314 140.431L354.621 138.514ZM337.931 219.611L339.294 222.283L337.931 219.611ZM134.535 416.13L135.276 419.037L134.535 416.13ZM206.66 354.07L203.896 352.903L206.66 354.07ZM217.964 31.5671L217.734 34.5582L217.964 31.5671ZM301.719 74.8658L299.412 76.7835L301.719 74.8658ZM18.9685 598.434L20.3152 589.213L14.3782 588.346L13.0315 597.567L18.9685 598.434ZM23.0086 570.769L25.702 552.325L19.7649 551.458L17.0716 569.902L23.0086 570.769ZM28.3954 533.881L31.0887 515.437L25.1517 514.57L22.4583 533.014L28.3954 533.881ZM33.7821 496.993L35.1288 487.772L29.1918 486.905L27.8451 496.126L33.7821 496.993ZM35.1288 487.772C35.6156 484.438 36.3423 481.181 37.2918 478.02L31.5454 476.294C30.5119 479.735 29.7213 483.279 29.1918 486.905L35.1288 487.772ZM45.7593 459.99C49.452 454.43 53.9456 449.439 59.0894 445.185L55.2656 440.561C49.6685 445.19 44.7792 450.621 40.7611 456.671L45.7593 459.99ZM76.1346 434.879C79.1793 433.604 82.3422 432.54 85.6065 431.708L84.1234 425.894C80.5729 426.8 77.1313 427.957 73.8173 429.344L76.1346 434.879ZM85.6065 431.708L98.024 428.54L96.5409 422.726L84.1234 425.894L85.6065 431.708ZM122.859 422.204L135.276 419.037L133.793 413.223L121.376 416.391L122.859 422.204ZM135.276 419.037C139.395 417.986 143.424 416.705 147.347 415.206L145.206 409.601C141.497 411.018 137.688 412.229 133.793 413.223L135.276 419.037ZM169.773 403.526C176.774 398.784 183.206 393.249 188.94 387.034L184.53 382.966C179.109 388.842 173.027 394.075 166.408 398.558L169.773 403.526ZM203.835 366.601C205.902 362.945 207.77 359.153 209.423 355.237L203.896 352.903C202.333 356.606 200.566 360.192 198.612 363.648L203.835 366.601ZM209.423 355.237L212.529 347.883L207.001 345.549L203.896 352.903L209.423 355.237ZM218.739 333.174L224.95 318.465L219.422 316.131L213.212 330.84L218.739 333.174ZM231.16 303.756L234.265 296.401L228.738 294.067L225.632 301.422L231.16 303.756ZM234.265 296.401C236.046 292.183 238.184 288.155 240.644 284.356L235.607 281.095C232.958 285.187 230.656 289.525 228.738 294.067L234.265 296.401ZM259.143 264.476C262.756 261.75 266.62 259.328 270.7 257.249L267.975 251.903C263.582 254.142 259.42 256.75 255.529 259.686L259.143 264.476ZM270.7 257.249L279.274 252.878L276.549 247.532L267.975 251.903L270.7 257.249ZM296.422 244.137L313.571 235.395L310.846 230.05L293.698 238.791L296.422 244.137ZM330.72 226.654L339.294 222.283L336.569 216.938L327.995 221.308L330.72 226.654ZM339.294 222.283C343.117 220.334 346.611 218.018 349.758 215.402L345.923 210.788C343.116 213.121 339.995 215.191 336.569 216.938L339.294 222.283ZM364.845 195.589C368.306 187.947 370.025 179.598 369.862 171.21L363.863 171.327C364.008 178.822 362.472 186.285 359.379 193.114L364.845 195.589ZM363.825 147.05C361.966 143.404 359.671 139.896 356.928 136.596L352.314 140.431C354.772 143.389 356.822 146.523 358.479 149.775L363.825 147.05ZM356.928 136.596L350.315 128.64L345.701 132.475L352.314 140.431L356.928 136.596ZM337.09 112.728L323.864 96.8162L319.25 100.651L332.476 116.563L337.09 112.728ZM310.639 80.9042L304.026 72.9483L299.412 76.7835L306.025 84.7394L310.639 80.9042ZM304.026 72.9483C301.37 69.7529 298.568 66.7075 295.632 63.8193L291.424 68.096C294.217 70.8445 296.884 73.7424 299.412 76.7835L304.026 72.9483ZM276.328 48.2967C269.391 43.7802 262.019 39.9689 254.323 36.9209L252.114 42.4993C259.437 45.3999 266.453 49.0268 273.054 53.3248L276.328 48.2967ZM230.496 30.1457C226.443 29.4209 222.338 28.8953 218.195 28.576L217.734 34.5582C221.676 34.8622 225.583 35.3623 229.44 36.052L230.496 30.1457ZM218.195 28.576L208.097 27.7976L207.636 33.7799L217.734 34.5582L218.195 28.576ZM187.901 26.2409L167.705 24.6842L167.244 30.6665L187.44 32.2232L187.901 26.2409ZM147.509 23.1276L127.313 21.5709L126.852 27.5531L147.048 29.1098L147.509 23.1276ZM107.117 20.0142L86.9216 18.4575L86.4605 24.4397L106.656 25.9964L107.117 20.0142ZM66.7257 16.9007L46.5298 15.344L46.0687 21.3263L66.2646 22.883L66.7257 16.9007ZM26.334 13.7873L16.236 13.009L15.7749 18.9913L25.8729 19.7696L26.334 13.7873Z" fill="#3B87FE"/>
</svg>
