<svg width="156" height="50" viewBox="0 0 156 50" fill="none" xmlns="http://www.w3.org/2000/svg">
<path d="M13.4111 21.49H36.0211V32.2H13.4111V21.49ZM14.3911 49H0.531058V-3.33786e-06H38.9611V10.71H14.3911V49Z" fill="#E32400"/>
<path d="M72.2532 49.98C65.0198 49.98 59.3732 47.9967 55.3132 44.03C51.2532 40.0633 49.2232 34.44 49.2232 27.16V-3.33786e-06H63.0832V26.74C63.0832 30.94 63.8998 33.95 65.5332 35.77C67.2132 37.59 69.4998 38.5 72.3932 38.5C75.2865 38.5 77.5498 37.59 79.1832 35.77C80.8165 33.95 81.6332 30.94 81.6332 26.74V-3.33786e-06H95.2832V27.16C95.2832 34.44 93.2532 40.0633 89.1932 44.03C85.1332 47.9967 79.4865 49.98 72.2532 49.98Z" fill="#FE6A00"/>
<path d="M108.872 49V-3.33786e-06H120.282L147.302 32.62H141.912V-3.33786e-06H155.492V49H144.082L117.062 16.38H122.452V49H108.872Z" fill="#3B87FE"/>
</svg>
