<svg width="80" height="310" viewBox="0 0 80 310" fill="none" xmlns="http://www.w3.org/2000/svg">
<path d="M41.327 0.666667C38.3815 0.666667 35.9936 3.05448 35.9936 6C35.9936 8.94552 38.3815 11.3333 41.327 11.3333C44.2725 11.3333 46.6603 8.94552 46.6603 6C46.6603 3.05448 44.2725 0.666667 41.327 0.666667ZM74 298.667C71.0545 298.667 68.6667 301.054 68.6667 304C68.6667 306.946 71.0545 309.333 74 309.333C76.9455 309.333 79.3333 306.946 79.3333 304C79.3333 301.054 76.9455 298.667 74 298.667ZM24.3294 279.819L23.8917 280.719L24.3294 279.819ZM15.4425 213.376L16.4123 213.133L15.4425 213.376ZM25.4688 24.0388L24.7177 23.3786L25.4688 24.0388ZM21.7648 34.8968L22.7628 34.8332L21.7648 34.8968ZM23.979 113.124L24.8297 113.649L23.979 113.124ZM3.33163 146.544L2.48089 146.019L3.33163 146.544ZM1.54518 158.085L2.51501 157.841L1.54518 158.085ZM40.5759 5.33975L36.6114 9.84946L38.1135 11.17L42.078 6.66025L40.5759 5.33975ZM28.6823 18.8689L24.7177 23.3786L26.2198 24.6991L30.1844 20.1894L28.6823 18.8689ZM24.7177 23.3786C21.9181 26.5632 20.4971 30.7288 20.7668 34.9604L22.7628 34.8332C22.5268 31.1305 23.7702 27.4856 26.2198 24.6991L24.7177 23.3786ZM20.7668 34.9604L21.3197 43.634L23.3156 43.5068L22.7628 34.8332L20.7668 34.9604ZM22.4254 60.9813L23.5311 78.3286L25.527 78.2014L24.4213 60.8541L22.4254 60.9813ZM24.6367 95.6759L25.1896 104.35L27.1855 104.222L26.6327 95.5486L24.6367 95.6759ZM25.1896 104.35C25.3742 107.246 24.6539 110.129 23.1283 112.598L24.8297 113.649C26.5733 110.827 27.3965 107.533 27.1855 104.222L25.1896 104.35ZM23.1283 112.598L17.9664 120.953L19.6679 122.005L24.8297 113.649L23.1283 112.598ZM7.64273 137.664L2.48089 146.019L4.18237 147.07L9.34421 138.715L7.64273 137.664ZM2.48089 146.019C0.208992 149.696 -0.47834 154.136 0.575348 158.329L2.51501 157.841C1.59304 154.173 2.19446 150.288 4.18237 147.07L2.48089 146.019ZM0.575348 158.329L2.31252 165.24L4.25218 164.752L2.51501 157.841L0.575348 158.329ZM5.78684 179.063L9.26118 192.886L11.2008 192.398L7.72652 178.575L5.78684 179.063ZM12.7355 206.709L14.4727 213.62L16.4123 213.133L14.6752 206.221L12.7355 206.709ZM14.4727 213.62C14.7531 214.736 14.895 215.882 14.895 217.033H16.895C16.895 215.718 16.7329 214.408 16.4123 213.133L14.4727 213.62ZM14.895 217.033V223.195H16.895V217.033H14.895ZM14.895 235.52V247.845H16.895V235.52H14.895ZM14.895 260.17V266.333H16.895V260.17H14.895ZM14.895 266.333C14.895 267.848 15.1092 269.332 15.5152 270.746L17.4375 270.194C17.0824 268.957 16.895 267.659 16.895 266.333H14.895ZM20.1951 278.229C21.2891 279.213 22.5289 280.055 23.8917 280.719L24.7671 278.92C23.5741 278.34 22.4895 277.603 21.5326 276.742L20.1951 278.229ZM23.8917 280.719L30.1005 283.741L30.9759 281.943L24.7671 278.92L23.8917 280.719ZM42.5182 289.786L54.9358 295.831L55.8112 294.033L43.3936 287.988L42.5182 289.786ZM67.3535 301.877L73.5623 304.899L74.4377 303.101L68.2289 300.078L67.3535 301.877Z" fill="#3B87FE"/>
</svg>
