<svg width="77" height="317" viewBox="0 0 77 317" fill="none" xmlns="http://www.w3.org/2000/svg">
<path d="M30.9217 316.333C33.8672 316.333 36.2551 313.946 36.2551 311C36.2551 308.054 33.8672 305.667 30.9217 305.667C27.9762 305.667 25.5884 308.054 25.5884 311C25.5884 313.946 27.9762 316.333 30.9217 316.333ZM6 11.3333C8.94552 11.3333 11.3333 8.94552 11.3333 6C11.3333 3.05448 8.94552 0.666667 6 0.666667C3.05448 0.666667 0.666667 3.05448 0.666667 6C0.666667 8.94552 3.05448 11.3333 6 11.3333ZM53.5094 34.1473L52.9997 35.0077L53.5094 34.1473ZM61.3619 102.689L62.3287 102.434L61.3619 102.689ZM50.784 290.113L51.5087 290.802L50.784 290.113ZM54.8828 278.81L53.8849 278.874L54.8828 278.81ZM52.6707 200.72L53.5185 201.251L52.6707 200.72ZM50.4175 209.644L49.4196 209.708L50.4175 209.644ZM73.553 167.349L74.4007 167.88L73.553 167.349ZM75.3391 155.558L74.3723 155.814L75.3391 155.558ZM31.6464 311.689L36.612 306.467L35.1626 305.089L30.197 310.311L31.6464 311.689ZM46.5431 296.024L51.5087 290.802L50.0593 289.423L45.0938 294.645L46.5431 296.024ZM51.5087 290.802C54.5833 287.568 56.1682 283.198 55.8808 278.745L53.8849 278.874C54.1364 282.77 52.7497 286.594 50.0593 289.423L51.5087 290.802ZM55.8808 278.745L55.3226 270.099L53.3267 270.228L53.8849 278.874L55.8808 278.745ZM54.2063 252.808L53.0899 235.516L51.0941 235.645L52.2104 252.937L54.2063 252.808ZM51.9736 218.225L51.4155 209.579L49.4196 209.708L49.9778 218.354L51.9736 218.225ZM51.4155 209.579C51.2264 206.651 51.9621 203.738 53.5185 201.251L51.823 200.19C50.0443 203.032 49.2036 206.362 49.4196 209.708L51.4155 209.579ZM53.5185 201.251L58.739 192.908L57.0436 191.847L51.823 200.19L53.5185 201.251ZM69.1801 176.222L74.4007 167.88L72.7053 166.819L67.4847 175.162L69.1801 176.222ZM74.4007 167.88C76.7466 164.131 77.4362 159.578 76.3059 155.303L74.3723 155.814C75.3614 159.555 74.7579 163.539 72.7053 166.819L74.4007 167.88ZM76.3059 155.303L74.5588 148.694L72.6252 149.205L74.3723 155.814L76.3059 155.303ZM71.0644 135.477L67.5701 122.26L65.6366 122.771L69.1309 135.988L71.0644 135.477ZM64.0758 109.042L62.3287 102.434L60.3951 102.945L62.1422 109.553L64.0758 109.042ZM62.3287 102.434C62.0199 101.266 61.8636 100.063 61.8636 98.8553H59.8636C59.8636 100.236 60.0423 101.61 60.3951 102.945L62.3287 102.434ZM61.8636 98.8553V92.3799H59.8636V98.8553H61.8636ZM61.8636 79.4292V66.4785H59.8636V79.4292H61.8636ZM61.8636 53.5278V47.0525H59.8636V53.5278H61.8636ZM61.8636 47.0525C61.8636 45.6512 61.6803 44.2754 61.3303 42.9547L59.3971 43.467C59.7032 44.6223 59.8636 45.8259 59.8636 47.0525H61.8636ZM57.2727 35.8345C56.3149 34.8603 55.2247 34.0013 54.0191 33.287L52.9997 35.0077C54.0549 35.6329 55.0087 36.3844 55.8466 37.2367L57.2727 35.8345ZM54.0191 33.287L48.0804 29.7686L47.061 31.4893L52.9997 35.0077L54.0191 33.287ZM36.2031 22.7317L24.3257 15.6949L23.3063 17.4156L35.1837 24.4524L36.2031 22.7317ZM12.4484 8.65808L6.50972 5.13966L5.49028 6.86034L11.429 10.3788L12.4484 8.65808Z" fill="#FE6A00"/>
</svg>
