<svg width="663" height="660" viewBox="0 0 663 660" fill="none" xmlns="http://www.w3.org/2000/svg">
<path d="M353.997 660.002C345.161 660.003 337.997 652.839 337.997 644.003C337.997 635.166 345.161 628.003 353.997 628.002C362.834 628.002 369.997 635.166 369.997 644.002C369.997 652.839 362.834 660.002 353.997 660.002ZM646.5 50.5C637.663 50.5001 630.5 43.3367 630.5 34.5001C630.5 25.6636 637.663 18.5001 646.5 18.5C655.336 18.4999 662.5 25.6633 662.5 34.4999C662.5 43.3364 655.336 50.4999 646.5 50.5ZM285.104 81.5025L285.104 84.5025L285.104 81.5025ZM323.456 71.8477L322.036 69.2052L323.456 71.8477ZM537.92 8.05583L537.21 10.9706L537.92 8.05583ZM412.231 24.1265L413.652 26.7689L412.231 24.1265ZM138.496 341.236L135.732 342.403L138.496 341.236ZM100.661 300.577L99.2981 303.25L100.661 300.577ZM337.837 533.34L334.868 533.773L337.837 533.34ZM285.132 474.802L284.391 477.709L285.132 474.802ZM15.3771 184.515L17.6842 186.433L15.3771 184.515ZM32.0667 265.612L30.7042 268.285L32.0667 265.612ZM235.463 462.131L236.204 459.225L235.463 462.131ZM163.338 400.072L166.101 398.905L163.338 400.072ZM64.7119 125.159L67.019 127.077L64.7119 125.159ZM157.766 81.5025L157.766 84.5025L157.766 81.5025ZM351.029 644.436L349.682 635.214L355.619 634.347L356.966 643.569L351.029 644.436ZM346.989 616.77L344.295 598.326L350.232 597.459L352.926 615.903L346.989 616.77ZM341.602 579.883L338.909 561.439L344.846 560.572L347.539 579.016L341.602 579.883ZM336.215 542.995L334.868 533.773L340.806 532.906L342.152 542.128L336.215 542.995ZM334.868 533.773C334.382 530.44 333.655 527.183 332.705 524.022L338.452 522.296C339.485 525.737 340.276 529.28 340.806 532.906L334.868 533.773ZM324.238 505.992C320.545 500.431 316.052 495.441 310.908 491.187L314.732 486.563C320.329 491.192 325.218 496.622 329.236 502.673L324.238 505.992ZM293.863 480.88C290.818 479.605 287.655 478.542 284.391 477.709L285.874 471.895C289.424 472.801 292.866 473.958 296.18 475.346L293.863 480.88ZM284.391 477.709L271.973 474.541L273.456 468.728L285.874 471.895L284.391 477.709ZM247.139 468.206L234.721 465.038L236.204 459.225L248.622 462.392L247.139 468.206ZM234.721 465.038C230.603 463.988 226.574 462.706 222.651 461.208L224.792 455.603C228.501 457.02 232.31 458.231 236.204 459.225L234.721 465.038ZM200.224 449.527C193.224 444.785 186.791 439.25 181.058 433.036L185.468 428.967C190.889 434.843 196.97 440.076 203.589 444.56L200.224 449.527ZM166.162 412.603C164.095 408.947 162.227 405.154 160.574 401.239L166.101 398.905C167.665 402.607 169.431 406.193 171.385 409.649L166.162 412.603ZM160.574 401.239L157.469 393.884L162.996 391.55L166.101 398.905L160.574 401.239ZM151.258 379.175L145.048 364.466L150.575 362.132L156.786 376.841L151.258 379.175ZM138.838 349.757L135.732 342.403L141.26 340.069L144.365 347.423L138.838 349.757ZM135.732 342.403C133.951 338.185 131.814 334.157 129.354 330.357L134.391 327.097C137.04 331.189 139.342 335.526 141.26 340.069L135.732 342.403ZM110.854 310.477C107.241 307.751 103.378 305.33 99.2981 303.25L102.023 297.905C106.416 300.144 110.577 302.752 114.468 305.688L110.854 310.477ZM99.2981 303.25L90.7239 298.879L93.4487 293.534L102.023 297.905L99.2981 303.25ZM73.5754 290.138L56.4269 281.397L59.1518 276.051L76.3002 284.793L73.5754 290.138ZM39.2784 272.656L30.7042 268.285L33.4291 262.939L42.0033 267.31L39.2784 272.656ZM30.7042 268.285C26.8807 266.336 23.3871 264.02 20.2399 261.404L24.0752 256.79C26.8817 259.122 30.0029 261.193 33.4291 262.939L30.7042 268.285ZM5.1534 241.591C1.69178 233.949 -0.0264361 225.6 0.136266 217.212L6.13511 217.328C5.98979 224.823 7.52575 232.287 10.6188 239.115L5.1534 241.591ZM6.17315 193.052C8.03164 189.405 10.3268 185.898 13.07 182.598L17.6842 186.433C15.2261 189.39 13.176 192.525 11.5188 195.776L6.17315 193.052ZM13.07 182.598L19.2368 175.178L23.8511 179.013L17.6842 186.433L13.07 182.598ZM31.5705 160.339L43.9042 145.5L48.5185 149.335L36.1848 164.174L31.5705 160.339ZM56.2379 130.661L62.4048 123.242L67.019 127.077L60.8522 134.496L56.2379 130.661ZM62.4048 123.242C64.3442 120.908 66.3609 118.656 68.4495 116.487L72.7716 120.648C70.784 122.713 68.8648 124.856 67.019 127.077L62.4048 123.242ZM81.9346 104.391C86.7309 100.684 91.7807 97.3433 97.0394 94.3898L99.9775 99.6212C94.9733 102.432 90.1679 105.611 85.6037 109.138L81.9346 104.391ZM113.439 86.6958C119.072 84.5395 124.869 82.7914 130.785 81.4723L132.091 87.3285C126.461 88.5838 120.944 90.2473 115.584 92.2992L113.439 86.6958ZM148.707 78.8334C151.71 78.6136 154.732 78.5025 157.766 78.5025L157.766 84.5025C154.878 84.5025 152.003 84.6082 149.145 84.8174L148.707 78.8334ZM157.766 78.5025L168.377 78.5025L168.377 84.5025L157.766 84.5025L157.766 78.5025ZM189.6 78.5024L210.823 78.5025L210.824 84.5025L189.6 84.5024L189.6 78.5024ZM232.047 78.5025L253.27 78.5025L253.27 84.5025L232.047 84.5025L232.047 78.5025ZM274.493 78.5024L285.104 78.5025L285.104 84.5025L274.493 84.5024L274.493 78.5024ZM285.104 78.5025C288.321 78.5024 291.524 78.3036 294.698 77.9102L295.436 83.8647C292.018 84.2883 288.568 84.5024 285.104 84.5025L285.104 78.5025ZM313.305 73.2261C316.287 72.0699 319.203 70.7282 322.036 69.2052L324.877 74.4901C321.826 76.1301 318.685 77.575 315.474 78.8202L313.305 73.2261ZM322.036 69.2052L329.434 65.2285L332.274 70.5133L324.877 74.4901L322.036 69.2052ZM344.229 57.275L359.025 49.3214L361.866 54.6062L347.07 62.5598L344.229 57.275ZM373.821 41.3679L388.617 33.4143L391.458 38.6992L376.662 46.6527L373.821 41.3679ZM403.413 25.4608L410.811 21.484L413.652 26.7689L406.254 30.7457L403.413 25.4608ZM410.811 21.484C414.044 19.7459 417.321 18.1117 420.637 16.582L423.15 22.0302C419.945 23.5089 416.777 25.0886 413.652 26.7689L410.811 21.484ZM441.091 8.61966C448.078 6.38015 455.183 4.57406 462.364 3.20656L463.486 9.10065C456.544 10.4226 449.677 12.1685 442.923 14.3333L441.091 8.61966ZM484.137 0.422722C491.431 -0.0606832 498.762 -0.100241 506.087 0.309358L505.752 6.29996C498.671 5.90403 491.585 5.94231 484.533 6.4096L484.137 0.422722ZM527.887 2.86903C531.481 3.5153 535.064 4.2724 538.63 5.14102L537.21 10.9706C533.763 10.1309 530.299 9.39904 526.825 8.77431L527.887 2.86903ZM538.63 5.14102L547.679 7.34474L546.259 13.1743L537.21 10.9706L538.63 5.14102ZM565.775 11.7521L583.872 16.1595L582.452 21.9891L564.355 17.5817L565.775 11.7521ZM601.968 20.5668L620.065 24.9742L618.645 30.8038L600.548 26.3964L601.968 20.5668ZM638.161 29.3815L647.21 31.5852L645.79 37.4148L636.741 35.2111L638.161 29.3815Z" fill="#FE6A00"/>
</svg>
