<svg width="213" height="213" viewBox="0 0 213 213" fill="none" xmlns="http://www.w3.org/2000/svg">
<g filter="url(#filter0_d_635_5)">
<rect x="25" y="21" width="163" height="163" rx="40" fill="white"/>
</g>
<path d="M118.644 64.3926H94.916C73.2633 64.3926 68.1304 69.4905 68.1304 90.9954V114.561C68.1304 136.066 73.2633 141.164 94.916 141.164H118.644C140.296 141.164 145.429 136.066 145.429 114.561V90.9954C145.429 69.4905 140.246 64.3926 118.644 64.3926ZM130.529 119.156C130.53 119.157 130.53 119.158 130.529 119.158H124.922C122.796 119.158 122.141 117.483 118.318 113.635C114.996 110.437 113.525 110.013 112.706 110.013C111.549 110.013 111.221 110.336 111.221 111.913V116.948C111.221 118.299 110.793 119.11 107.194 119.11C101.242 119.11 94.6383 115.535 90.0077 108.875C83.0245 99.1161 81.1138 91.8063 81.1138 90.2949C81.1138 89.4816 81.4399 88.7211 83.0124 88.7211H88.6357C90.0584 88.7211 90.5995 89.3713 91.1527 90.8827C93.9329 98.8546 98.5635 105.838 100.474 105.838C101.179 105.838 101.506 105.514 101.506 103.727V95.4936C101.291 91.6959 99.2785 91.3697 99.2785 90.0214C99.2785 89.3713 99.8196 88.7211 100.687 88.7211H109.53C110.726 88.7211 111.165 89.3713 111.165 90.7699V101.877C111.165 103.077 111.706 103.502 112.032 103.502C112.738 103.502 113.342 103.077 114.648 101.777C117.909 98.145 120.424 92.9245 121.271 91.048C121.483 90.5788 121.659 90.0867 121.978 89.6823C122.389 89.1607 123.014 88.7691 124.035 88.7691H129.658C131.344 88.7691 131.721 89.6304 131.344 90.8299C130.793 93.3706 126.462 99.8255 124.602 102.517C124.043 103.325 123.17 104.095 123.227 105.075C123.245 105.395 123.404 105.741 123.757 106.21C124.361 107.023 126.325 108.71 127.632 110.221C130.035 112.932 131.883 115.206 132.376 116.78C132.929 118.341 132.114 119.154 130.529 119.155C130.529 119.155 130.529 119.156 130.529 119.156Z" fill="black"/>
<defs>
<filter id="filter0_d_635_5" x="0" y="0" width="213" height="213" filterUnits="userSpaceOnUse" color-interpolation-filters="sRGB">
<feFlood flood-opacity="0" result="BackgroundImageFix"/>
<feColorMatrix in="SourceAlpha" type="matrix" values="0 0 0 0 0 0 0 0 0 0 0 0 0 0 0 0 0 0 127 0" result="hardAlpha"/>
<feOffset dy="4"/>
<feGaussianBlur stdDeviation="12.5"/>
<feComposite in2="hardAlpha" operator="out"/>
<feColorMatrix type="matrix" values="0 0 0 0 0.231373 0 0 0 0 0.529412 0 0 0 0 0.996078 0 0 0 1 0"/>
<feBlend mode="normal" in2="BackgroundImageFix" result="effect1_dropShadow_635_5"/>
<feBlend mode="normal" in="SourceGraphic" in2="effect1_dropShadow_635_5" result="shape"/>
</filter>
</defs>
</svg>
