<svg width="185" height="185" viewBox="0 0 185 185" fill="none" xmlns="http://www.w3.org/2000/svg">
<g filter="url(#filter0_d_446_94)">
<circle cx="92.5" cy="88.5" r="75.5" fill="white"/>
</g>
<path d="M98.9827 60.1918C104.556 60.1918 109.9 62.4663 113.841 66.5148C117.782 70.5633 119.996 76.0543 119.996 81.7797C119.996 87.5052 117.782 92.9961 113.841 97.0446C109.9 101.093 104.556 103.368 98.9827 103.368C93.4097 103.368 88.065 101.093 84.1243 97.0446C80.1836 92.9961 77.9698 87.5052 77.9698 81.7797C77.9698 76.0543 80.1836 70.5633 84.1243 66.5148C88.065 62.4663 93.4097 60.1918 98.9827 60.1918ZM127 81.7797C126.999 77.199 125.935 72.6846 123.894 68.6116C121.854 64.5387 118.897 61.0249 115.268 58.3622C111.64 55.6996 107.446 53.9649 103.034 53.3025C98.6223 52.6401 94.1202 53.0691 89.9022 54.5537C85.6841 56.0384 81.8719 58.5358 78.7822 61.8385C75.6926 65.1412 73.4149 69.1538 72.1383 73.5428C70.8617 77.9317 70.6232 82.5703 71.4425 87.0731C72.2619 91.5758 74.1154 95.8126 76.8491 99.4314L57.9829 118.814C57.345 119.492 56.992 120.401 57 121.345C57.0079 122.288 57.3763 123.19 58.0256 123.857C58.6749 124.525 59.5533 124.903 60.4716 124.911C61.3898 124.919 62.2745 124.557 62.935 123.901L81.8011 104.519C85.9426 107.822 90.9032 109.865 96.1188 110.416C101.334 110.967 106.596 110.003 111.305 107.634C116.013 105.265 119.981 101.586 122.755 97.0153C125.53 92.4449 127.001 87.1662 127 81.7797Z" fill="#FE6A00"/>
<defs>
<filter id="filter0_d_446_94" x="0.1" y="0.1" width="184.8" height="184.8" filterUnits="userSpaceOnUse" color-interpolation-filters="sRGB">
<feFlood flood-opacity="0" result="BackgroundImageFix"/>
<feColorMatrix in="SourceAlpha" type="matrix" values="0 0 0 0 0 0 0 0 0 0 0 0 0 0 0 0 0 0 127 0" result="hardAlpha"/>
<feMorphology radius="2" operator="dilate" in="SourceAlpha" result="effect1_dropShadow_446_94"/>
<feOffset dy="4"/>
<feGaussianBlur stdDeviation="7.45"/>
<feComposite in2="hardAlpha" operator="out"/>
<feColorMatrix type="matrix" values="0 0 0 0 0 0 0 0 0 0 0 0 0 0 0 0 0 0 0.19 0"/>
<feBlend mode="normal" in2="BackgroundImageFix" result="effect1_dropShadow_446_94"/>
<feBlend mode="normal" in="SourceGraphic" in2="effect1_dropShadow_446_94" result="shape"/>
</filter>
</defs>
</svg>
