<svg width="213" height="213" viewBox="0 0 213 213" fill="none" xmlns="http://www.w3.org/2000/svg">
<g filter="url(#filter0_d_635_11)">
<rect x="25" y="21" width="163" height="163" rx="40" fill="white"/>
<path d="M126.989 78.765C126.078 78.765 125.188 79.0234 124.431 79.5076C123.674 79.9917 123.084 80.6798 122.735 81.4849C122.387 82.29 122.296 83.1759 122.473 84.0306C122.651 84.8853 123.089 85.6704 123.733 86.2865C124.377 86.9027 125.198 87.3224 126.091 87.4924C126.984 87.6624 127.91 87.5751 128.751 87.2416C129.592 86.9082 130.311 86.3434 130.817 85.6189C131.323 84.8943 131.593 84.0425 131.593 83.171C131.593 82.0025 131.108 80.8818 130.245 80.0555C129.381 79.2292 128.21 78.765 126.989 78.765ZM144.639 87.6505C144.564 84.6041 143.968 81.59 142.874 78.7283C141.898 76.2798 140.38 74.0626 138.423 72.2294C136.523 70.3474 134.201 68.9036 131.632 68.007C128.649 66.9281 125.496 66.3445 122.308 66.2813C118.241 66.061 116.936 66.061 106.5 66.061C96.0633 66.061 94.7587 66.061 90.6916 66.2813C87.5037 66.3445 84.3504 66.9281 81.3678 68.007C78.8035 68.9126 76.4831 70.3553 74.5764 72.2294C72.6097 74.0476 71.1008 76.2699 70.1639 78.7283C69.0365 81.5825 68.4266 84.5999 68.3606 87.6505C68.1304 91.5424 68.1304 92.7908 68.1304 102.778C68.1304 112.765 68.1304 114.013 68.3606 117.905C68.4266 120.956 69.0365 123.973 70.1639 126.827C71.1008 129.286 72.6097 131.508 74.5764 133.326C76.4831 135.2 78.8035 136.643 81.3678 137.549C84.3504 138.627 87.5037 139.211 90.6916 139.274C94.7587 139.494 96.0633 139.494 106.5 139.494C116.936 139.494 118.241 139.494 122.308 139.274C125.496 139.211 128.649 138.627 131.632 137.549C134.201 136.652 136.523 135.208 138.423 133.326C140.389 131.5 141.908 129.281 142.874 126.827C143.968 123.966 144.564 120.951 144.639 117.905C144.639 114.013 144.869 112.765 144.869 102.778C144.869 92.7908 144.869 91.5424 144.639 87.6505ZM137.732 117.464C137.705 119.795 137.263 122.104 136.428 124.294C135.815 125.892 134.831 127.335 133.55 128.516C132.306 129.73 130.8 130.669 129.138 131.27C126.85 132.069 124.437 132.492 122.001 132.518C118.164 132.702 116.744 132.739 106.653 132.739C96.5621 132.739 95.1424 132.739 91.3055 132.518C88.7765 132.564 86.2584 132.191 83.8618 131.417C82.2725 130.786 80.8358 129.848 79.6412 128.663C78.3677 127.484 77.396 126.039 76.8019 124.441C75.8651 122.22 75.3455 119.858 75.2671 117.464C75.2671 113.793 75.0369 112.434 75.0369 102.778C75.0369 93.1213 75.0369 91.7627 75.2671 88.0911C75.2843 85.7084 75.7388 83.3471 76.61 81.1149C77.2855 79.5651 78.3223 78.1836 79.6412 77.0761C80.8069 75.8136 82.2476 74.811 83.8618 74.1387C86.2006 73.3311 88.6657 72.909 91.152 72.8903C94.989 72.8903 96.4086 72.67 106.5 72.67C116.591 72.67 118.011 72.67 121.848 72.8903C124.283 72.9171 126.696 73.3392 128.984 74.1387C130.728 74.758 132.293 75.7647 133.55 77.0761C134.808 78.2039 135.79 79.5828 136.428 81.1149C137.281 83.3507 137.722 85.711 137.732 88.0911C137.924 91.7627 137.963 93.1213 137.963 102.778C137.963 112.434 137.924 113.793 137.732 117.464ZM106.5 83.9421C102.608 83.9493 98.8066 85.0602 95.5747 87.1343C92.3428 89.2084 89.8259 92.1527 88.342 95.5951C86.8581 99.0375 86.4737 102.824 87.2375 106.475C88.0014 110.126 89.8791 113.479 92.6334 116.11C95.3877 118.74 98.895 120.53 102.712 121.254C106.529 121.978 110.485 121.603 114.08 120.176C117.674 118.749 120.746 116.335 122.907 113.238C125.068 110.142 126.222 106.502 126.222 102.778C126.227 100.3 125.72 97.8453 124.73 95.5554C123.74 93.2656 122.287 91.1856 120.454 89.4351C118.621 87.6846 116.445 86.2981 114.05 85.3554C111.655 84.4127 109.089 83.9324 106.5 83.9421ZM106.5 115.004C103.973 115.004 101.502 114.287 99.4013 112.944C97.3001 111.6 95.6624 109.691 94.6954 107.457C93.7283 105.223 93.4753 102.764 93.9683 100.392C94.4613 98.0207 95.6782 95.8421 97.4651 94.1322C99.252 92.4223 101.529 91.2578 104.007 90.786C106.486 90.3143 109.055 90.5564 111.389 91.4818C113.724 92.4072 115.72 93.9743 117.123 95.985C118.527 97.9957 119.277 100.36 119.277 102.778C119.277 104.383 118.946 105.973 118.304 107.457C117.662 108.94 116.721 110.288 115.535 111.423C114.348 112.559 112.94 113.459 111.389 114.074C109.839 114.688 108.178 115.004 106.5 115.004Z" fill="black"/>
</g>
<defs>
<filter id="filter0_d_635_11" x="0" y="0" width="213" height="213" filterUnits="userSpaceOnUse" color-interpolation-filters="sRGB">
<feFlood flood-opacity="0" result="BackgroundImageFix"/>
<feColorMatrix in="SourceAlpha" type="matrix" values="0 0 0 0 0 0 0 0 0 0 0 0 0 0 0 0 0 0 127 0" result="hardAlpha"/>
<feOffset dy="4"/>
<feGaussianBlur stdDeviation="12.5"/>
<feComposite in2="hardAlpha" operator="out"/>
<feColorMatrix type="matrix" values="0 0 0 0 0.890196 0 0 0 0 0.141176 0 0 0 0 0 0 0 0 1 0"/>
<feBlend mode="normal" in2="BackgroundImageFix" result="effect1_dropShadow_635_11"/>
<feBlend mode="normal" in="SourceGraphic" in2="effect1_dropShadow_635_11" result="shape"/>
</filter>
</defs>
</svg>
