<svg width="2192" height="1800" viewBox="0 0 2192 1800" fill="none" xmlns="http://www.w3.org/2000/svg">
<path d="M-3.94824 1473.44C265.621 1534.96 429.89 1530.64 488.859 1460.48C547.828 1390.31 617.311 1334.15 697.309 1291.98C777.307 1249.8 880.164 1238.06 1005.88 1256.75C1131.59 1275.44 1223.35 1248.92 1281.15 1177.2C1338.95 1105.48 1436.17 1086.23 1572.81 1119.46C1709.44 1152.69 1804.54 1130.62 1858.1 1053.25C1911.65 975.879 1960.32 891.999 2004.09 801.608C2047.87 711.217 2146.19 693.434 2299.05 748.257C2451.91 803.08 2485.29 773.187 2399.19 658.578" stroke="#3B87FE" stroke-width="7"/>
<path d="M-103.266 1184.09C172.272 1242.96 341.018 1236.65 402.971 1165.16C464.924 1093.68 537.392 1036.18 620.374 992.689C703.356 949.194 809.197 936.128 937.897 953.492C1066.6 970.855 1161.34 943.014 1222.12 869.968C1282.9 796.922 1383.11 776.351 1522.73 808.256C1662.35 840.16 1760.43 816.765 1816.97 738.071C1873.51 659.377 1925.16 574.173 1971.92 482.458C2018.68 390.742 2119.98 371.634 2275.83 425.133C2431.67 478.633 2466.55 448.077 2380.45 333.468" stroke="#E32400" stroke-width="7"/>
<path d="M-215 1055.27C60.538 1114.15 229.284 1107.84 291.237 1036.35C353.19 964.864 425.658 907.372 508.64 863.877C591.623 820.382 697.463 807.317 826.163 824.68C954.862 842.044 1049.6 814.203 1110.39 741.157C1171.17 668.111 1271.37 647.54 1411 679.444C1550.62 711.349 1648.7 687.954 1705.24 609.26C1761.78 530.566 1813.43 445.361 1860.19 353.646C1906.95 261.931 2008.25 242.823 2164.1 296.322C2319.94 349.821 2397.5 311.938 2311.41 197.329" stroke="#3B87FF" stroke-width="7"/>
<path d="M-66.021 1320.08C207.588 1379.81 374.887 1374.14 435.875 1303.08C496.864 1232.02 568.367 1174.96 650.385 1131.89C732.403 1088.83 837.279 1076.19 965.014 1093.98C1092.75 1111.77 1186.53 1084.36 1246.34 1011.74C1306.16 939.122 1405.4 918.979 1544.06 951.312C1682.72 983.644 1779.83 960.677 1835.41 882.411C1890.99 804.145 1941.67 719.368 1987.47 628.081C2033.26 536.794 2133.6 518.114 2288.48 572.041C2443.36 625.968 2477.75 595.627 2391.66 481.018" stroke="#FE6A00" stroke-width="7"/>
</svg>
