<svg width="2192" height="1828" viewBox="0 0 2192 1828" fill="none" xmlns="http://www.w3.org/2000/svg">
<path d="M2259.06 1477C1989.5 1546.16 1826.56 1544 1770.24 1470.51C1713.91 1397.03 1646.7 1338.52 1568.62 1295.01C1490.53 1251.5 1388.79 1240.57 1263.4 1262.22C1138.01 1283.88 1047.75 1257.13 992.638 1181.97C937.523 1106.81 841.617 1087.85 704.922 1125.07C568.226 1162.3 474.516 1140.31 423.791 1059.1C373.066 977.899 327.402 889.724 286.798 794.577C246.195 699.431 149.152 682.031 -4.3295 742.379C-157.811 802.726 -190.008 771.539 -100.919 648.816" stroke="#3B87FE" stroke-width="7"/>
<path d="M2294.04 1191.24C2029.21 1249.36 1867.13 1242.58 1807.83 1170.93C1748.52 1099.27 1679.08 1041.58 1599.49 997.854C1519.91 954.131 1418.28 940.775 1294.61 957.785C1170.93 974.795 1080.01 946.694 1021.83 873.481C963.654 800.269 867.462 779.423 733.255 810.944C599.049 842.464 504.903 818.8 450.817 739.951C396.732 661.102 347.363 575.756 302.71 483.913C258.057 392.07 160.806 372.684 10.955 425.754C-138.896 478.825 -172.307 448.175 -89.2807 333.802" stroke="#E32400" stroke-width="7"/>
<path d="M2401.74 1062.73C2136.9 1120.85 1974.83 1114.08 1915.52 1042.42C1856.22 970.763 1786.77 913.073 1707.19 869.35C1627.6 825.628 1525.97 812.271 1402.3 829.281C1278.63 846.291 1187.7 818.19 1129.53 744.977C1071.35 671.765 975.158 650.919 840.951 682.44C706.744 713.96 612.598 690.296 558.513 611.447C504.427 532.598 455.058 447.252 410.406 355.409C365.753 263.566 268.501 244.18 118.651 297.251C-31.1999 350.321 -105.594 312.225 -22.5675 197.853" stroke="#3B87FF" stroke-width="7"/>
<path d="M2257.88 1327.13C1994.89 1386.11 1834.21 1379.98 1775.83 1308.75C1717.45 1237.53 1648.93 1180.27 1570.27 1136.97C1491.61 1093.68 1390.9 1080.76 1268.16 1098.2C1145.41 1115.64 1055.41 1087.97 998.158 1015.19C940.906 942.404 845.639 921.989 712.358 953.94C579.076 985.892 485.856 962.658 432.695 884.24C379.535 805.821 331.091 720.906 287.364 629.493C243.637 538.081 147.31 519.125 -1.61511 572.627C-150.54 626.128 -183.49 595.693 -100.463 481.32" stroke="#FE6A00" stroke-width="7"/>
</svg>
