<?xml version="1.0" encoding="UTF-8"?>
<!DOCTYPE svg PUBLIC "-//W3C//DTD SVG 1.1//EN" "http://www.w3.org/Graphics/SVG/1.1/DTD/svg11.dtd">
<svg xmlns="http://www.w3.org/2000/svg" version="1.1" width="700px" height="706px" style="shape-rendering:geometricPrecision; text-rendering:geometricPrecision; image-rendering:optimizeQuality; fill-rule:evenodd; clip-rule:evenodd" xmlns:xlink="http://www.w3.org/1999/xlink">
<g><path style="opacity:0.937" fill="#d23e23" d="M 204.5,174.5 C 227.917,173.503 250.583,177.003 272.5,185C 281.597,189.696 290.764,194.196 300,198.5C 301.067,197.809 302.234,197.309 303.5,197C 319.5,195.394 335.5,194.894 351.5,195.5C 371.441,193.451 391.441,192.117 411.5,191.5C 434.061,195.49 456.728,198.823 479.5,201.5C 494,198.131 508.5,194.797 523,191.5C 525.515,192.115 527.848,193.115 530,194.5C 543.669,220.434 549.002,248.101 546,277.5C 543.727,293.654 540.227,309.488 535.5,325C 537.043,335.883 539.043,346.717 541.5,357.5C 549.865,367.696 558.032,378.029 566,388.5C 574.529,364.752 582.529,340.752 590,316.5C 593.031,309.302 598.198,304.302 605.5,301.5C 607.031,296.033 608.864,290.7 611,285.5C 618.058,278.507 624.391,279.173 630,287.5C 630.923,292.479 631.756,297.479 632.5,302.5C 638.287,303.79 643.954,305.457 649.5,307.5C 659.359,314.541 660.026,322.374 651.5,331C 647.121,333.243 642.455,334.41 637.5,334.5C 631.718,334.037 626.052,333.037 620.5,331.5C 610.01,368.787 599.51,406.12 589,443.5C 579.515,452.067 569.682,452.567 559.5,445C 553.643,438.643 547.31,432.809 540.5,427.5C 539.596,438.063 538.596,448.563 537.5,459C 554.305,474.393 562.805,493.56 563,516.5C 561.292,524.102 557.458,530.269 551.5,535C 545.028,537.074 538.695,539.408 532.5,542C 527.293,542.759 522.126,542.592 517,541.5C 496.275,544.315 475.442,545.148 454.5,544C 446.281,542.815 438.281,540.815 430.5,538C 423.454,537.326 416.454,536.326 409.5,535C 405.167,534.333 400.833,534.333 396.5,535C 400.197,552.325 403.197,569.825 405.5,587.5C 413.536,587.93 421.536,588.763 429.5,590C 441.415,596.333 443.748,605 436.5,616C 434.391,617.907 431.891,618.74 429,618.5C 412.527,617.179 396.027,616.346 379.5,616C 377.667,614.833 375.833,613.667 374,612.5C 371.16,587.89 368.827,563.223 367,538.5C 362.774,537.585 358.607,538.085 354.5,540C 347.833,540.333 341.167,540.667 334.5,541C 332.919,541.707 331.419,542.54 330,543.5C 327.708,564.797 325.708,586.13 324,607.5C 323.899,610.873 322.399,613.373 319.5,615C 302.402,616.297 285.235,617.464 268,618.5C 260.562,617.728 256.395,613.562 255.5,606C 256.436,598.394 260.436,593.061 267.5,590C 275.464,588.763 283.464,587.93 291.5,587.5C 293.131,573.185 295.464,559.019 298.5,545C 283.672,543.612 269.005,541.279 254.5,538C 240.464,537.438 226.464,536.438 212.5,535C 208.55,533.794 204.55,532.794 200.5,532C 187.788,527.144 175.454,521.477 163.5,515C 154.044,510.277 151.21,503.111 155,493.5C 156.479,490.059 158.145,486.726 160,483.5C 168.022,475.818 174.022,466.818 178,456.5C 179.966,442.133 179.632,427.8 177,413.5C 175.951,412.483 174.784,412.316 173.5,413C 164.705,421.807 155.372,429.807 145.5,437C 138.55,438.143 132.05,436.976 126,433.5C 124.274,431.772 122.941,429.772 122,427.5C 111.863,391.588 102.03,355.588 92.5,319.5C 86.748,320.69 80.9147,321.357 75,321.5C 63.4522,322.496 56.9522,317.329 55.5,306C 55.2011,302.265 56.5345,299.265 59.5,297C 65.7849,293.591 72.4516,291.091 79.5,289.5C 80.0794,284.029 81.2461,278.696 83,273.5C 86.8711,269.12 91.7044,267.62 97.5,269C 102.113,274.727 105.28,281.227 107,288.5C 112.306,291.81 116.973,295.81 121,300.5C 129.185,325.583 137.518,350.583 146,375.5C 154.228,365.609 162.062,355.442 169.5,345C 170.99,323.874 175.657,303.541 183.5,284C 182.126,281.417 180.626,278.917 179,276.5C 174.899,262.098 172.399,247.432 171.5,232.5C 172.592,216.023 174.759,199.689 178,183.5C 179.633,181.023 181.8,179.19 184.5,178C 191.364,177.167 198.031,176 204.5,174.5 Z"/></g>
<g><path style="opacity:1" fill="#e39584" d="M 310.5,203.5 C 323.831,203.103 337.165,202.77 350.5,202.5C 362.796,201.36 375.13,200.36 387.5,199.5C 395.492,200.613 403.492,200.613 411.5,199.5C 422.901,200.466 434.234,201.966 445.5,204C 452.833,204.333 460.167,204.667 467.5,205C 469.13,208.062 468.13,209.729 464.5,210C 459.936,210.049 455.603,210.883 451.5,212.5C 449.529,212.004 447.529,211.67 445.5,211.5C 432.748,213.008 420.082,214.842 407.5,217C 406.167,217.667 406.167,218.333 407.5,219C 438.17,217.853 468.17,212.853 497.5,204C 506.406,201.852 515.406,200.852 524.5,201C 526.726,202.227 528.226,204.061 529,206.5C 541.581,240.373 542.747,274.706 532.5,309.5C 530.604,310.466 528.604,310.799 526.5,310.5C 526.66,308.801 526.494,307.134 526,305.5C 524.073,299.991 521.906,294.658 519.5,289.5C 518.5,289.5 517.5,289.5 516.5,289.5C 517.44,292.714 518.94,295.714 521,298.5C 522.474,306.442 524.807,314.109 528,321.5C 530.428,332.779 531.594,344.112 531.5,355.5C 532.38,369.143 533.047,382.809 533.5,396.5C 533.527,403.578 532.861,410.578 531.5,417.5C 534.263,442.828 531.263,467.328 522.5,491C 523.01,492.826 523.844,492.993 525,491.5C 527.401,484.129 529.901,476.796 532.5,469.5C 534.695,468.231 536.861,468.231 539,469.5C 547.534,480.082 553.201,492.082 556,505.5C 558.763,517.189 554.93,525.689 544.5,531C 535.216,535.302 525.549,536.468 515.5,534.5C 495.589,537.306 475.589,538.139 455.5,537C 445.911,535.436 436.578,532.936 427.5,529.5C 424.749,531.143 422.416,530.81 420.5,528.5C 421.167,528.167 421.833,527.833 422.5,527.5C 437.756,523.192 452.756,518.358 467.5,513C 471.513,510.994 475.18,508.494 478.5,505.5C 478,504.119 477,503.453 475.5,503.5C 462.579,508.618 449.579,513.785 436.5,519C 433.5,519.333 430.5,519.667 427.5,520C 418.891,522.719 410.224,525.052 401.5,527C 385.136,526.292 369.136,528.292 353.5,533C 346.833,533.333 340.167,533.667 333.5,534C 318.695,537.256 303.695,538.256 288.5,537C 263.745,532.224 238.745,529.224 213.5,528C 206.966,527.093 200.632,525.427 194.5,523C 185.027,518.098 175.361,513.432 165.5,509C 161.52,507.522 159.854,504.688 160.5,500.5C 160.676,496.14 162.009,492.14 164.5,488.5C 169.667,482.167 174.833,475.833 180,469.5C 183.128,463.225 185.128,456.558 186,449.5C 187.187,429.736 184.853,410.402 179,391.5C 177.182,375.889 176.515,360.222 177,344.5C 178.486,331.076 180.486,317.742 183,304.5C 185.131,297.578 187.798,290.911 191,284.5C 193.772,269.555 198.605,255.388 205.5,242C 205.15,240.743 204.483,240.409 203.5,241C 198.208,250.625 194.041,260.792 191,271.5C 189,272.833 187,272.833 185,271.5C 177.777,242.906 177.777,214.239 185,185.5C 213.967,178.978 242.467,180.812 270.5,191C 275.246,193.973 280.246,196.473 285.5,198.5C 286.466,200.396 286.799,202.396 286.5,204.5C 276.121,205.843 266.454,209.176 257.5,214.5C 256.121,215.863 256.287,216.863 258,217.5C 262.948,213.881 268.448,211.381 274.5,210C 286.501,207.833 298.501,205.666 310.5,203.5 Z"/></g>
<g><path style="opacity:1" fill="#d9644e" d="M 350.5,202.5 C 337.165,202.77 323.831,203.103 310.5,203.5C 323.812,201.713 337.145,201.379 350.5,202.5 Z"/></g>
<g><path style="opacity:1" fill="#e39483" d="M 90.5,276.5 C 92.1439,276.286 93.6439,276.62 95,277.5C 96.9321,284.257 99.0987,290.924 101.5,297.5C 103.527,297.338 105.527,297.505 107.5,298C 110.045,300.376 112.378,302.876 114.5,305.5C 123.606,332.985 132.606,360.485 141.5,388C 144.789,388.746 147.289,387.58 149,384.5C 156.134,374.556 163.967,365.222 172.5,356.5C 172.833,358.167 173.167,359.833 173.5,361.5C 172.627,368.314 171.961,375.147 171.5,382C 172.282,388.843 172.782,395.677 173,402.5C 166.632,408.926 159.798,414.759 152.5,420C 149.931,422.479 147.598,425.146 145.5,428C 141.625,429.52 137.625,429.854 133.5,429C 131.274,427.773 129.774,425.939 129,423.5C 121.402,394.707 113.402,366.04 105,337.5C 102.871,330.652 101.538,323.652 101,316.5C 99.647,315.315 98.4803,313.981 97.5,312.5C 95.3333,312.167 93.1667,311.833 91,311.5C 83.2865,313.281 75.4532,313.781 67.5,313C 62.1899,309.024 62.1899,305.191 67.5,301.5C 74.8682,298.489 82.5348,297.156 90.5,297.5C 90.5323,292.893 89.8657,288.393 88.5,284C 88.668,281.335 89.3347,278.835 90.5,276.5 Z"/></g>
<g><path style="opacity:1" fill="#d23f25" d="M 318.5,280.5 C 328.619,280.556 338.619,281.723 348.5,284C 349.891,285.02 351.391,285.853 353,286.5C 353.72,288.112 353.554,289.612 352.5,291C 345.576,290.336 338.576,289.336 331.5,288C 320.302,286.299 310.302,288.966 301.5,296C 299.527,296.495 297.527,296.662 295.5,296.5C 294.822,292.727 296.156,289.894 299.5,288C 305.722,284.877 312.056,282.377 318.5,280.5 Z"/></g>
<g><path style="opacity:1" fill="#d23e25" d="M 385.5,286.5 C 401.457,286.06 417.124,287.893 432.5,292C 433.911,295.282 432.745,297.116 429,297.5C 414.997,293.93 400.83,292.93 386.5,294.5C 384.391,294.225 383.058,293.058 382.5,291C 383.315,289.357 384.315,287.857 385.5,286.5 Z"/></g>
<g><path style="opacity:1" fill="#e39482" d="M 617.5,289.5 C 619.766,289.141 621.599,289.808 623,291.5C 623.931,296.995 623.431,302.329 621.5,307.5C 621.833,308.167 622.167,308.833 622.5,309.5C 630.771,310.156 638.771,311.99 646.5,315C 648.124,316.117 649.124,317.617 649.5,319.5C 648.441,322.068 646.774,324.235 644.5,326C 639.5,326.667 634.5,326.667 629.5,326C 623.94,322.536 618.607,322.702 613.5,326.5C 603.135,364.237 592.468,401.904 581.5,439.5C 572.867,444.784 566.2,442.951 561.5,434C 553.418,428.589 545.918,422.422 539,415.5C 539.46,408.721 539.96,401.888 540.5,395C 539.779,386.514 539.445,378.014 539.5,369.5C 540.675,369.281 541.675,369.614 542.5,370.5C 549.926,380.349 557.593,390.015 565.5,399.5C 567.353,400.76 569.186,400.76 571,399.5C 580.131,373.305 588.798,346.972 597,320.5C 599.528,314.634 603.861,310.968 610,309.5C 612.805,302.915 615.305,296.248 617.5,289.5 Z"/></g>
<g><path style="opacity:1" fill="#d13b21" d="M 332.5,299.5 C 344.75,300.601 350.417,307.434 349.5,320C 349.364,334.085 344.364,346.085 334.5,356C 323.339,362.21 316.172,359.043 313,346.5C 310.63,330.314 314.796,316.147 325.5,304C 327.898,302.476 330.231,300.976 332.5,299.5 Z"/></g>
<g><path style="opacity:1" fill="#d13b21" d="M 385.5,299.5 C 395.75,299.244 401.583,304.244 403,314.5C 403.564,327.914 400.23,340.247 393,351.5C 388.214,357.478 382.048,359.978 374.5,359C 366.897,351.027 364.064,341.527 366,330.5C 367.995,317.145 374.495,306.811 385.5,299.5 Z"/></g>
<g><path style="opacity:1" fill="#d23f25" d="M 331.5,383.5 C 354.474,383.825 375.808,389.825 395.5,401.5C 397.028,406.084 395.362,407.584 390.5,406C 370.766,395.483 349.766,390.483 327.5,391C 325.963,387.024 327.297,384.524 331.5,383.5 Z"/></g>
<g><path style="opacity:1" fill="#e39382" d="M 381.5,532.5 C 383.821,532.229 385.821,532.896 387.5,534.5C 388.998,538.484 390.498,542.484 392,546.5C 393.544,560.441 395.71,574.274 398.5,588C 395.581,591.839 396.581,594.172 401.5,595C 410.21,595.202 418.876,595.869 427.5,597C 433.089,599.451 434.922,603.617 433,609.5C 432.481,610.516 431.647,611.182 430.5,611.5C 414.213,609.961 397.88,609.295 381.5,609.5C 379.692,603.324 378.526,596.991 378,590.5C 377.495,573.068 375.995,555.735 373.5,538.5C 373.608,537.558 373.941,536.725 374.5,536C 376.81,535.503 379.143,535.337 381.5,535.5C 381.5,534.5 381.5,533.5 381.5,532.5 Z"/></g>
<g><path style="opacity:1" fill="#e39483" d="M 305.5,543.5 C 310.813,544.098 316.146,544.431 321.5,544.5C 320.717,566.012 318.55,587.346 315,608.5C 299.042,609.181 283.042,609.848 267,610.5C 262.447,603.773 264.281,599.273 272.5,597C 280.171,596.388 287.838,595.722 295.5,595C 299.491,594.085 300.491,591.751 298.5,588C 301.38,573.249 303.713,558.416 305.5,543.5 Z"/></g>
</svg>
