<?xml version="1.0" encoding="UTF-8"?>
<!DOCTYPE svg PUBLIC "-//W3C//DTD SVG 1.1//EN" "http://www.w3.org/Graphics/SVG/1.1/DTD/svg11.dtd">
<svg xmlns="http://www.w3.org/2000/svg" version="1.1" width="702px" height="702px" style="shape-rendering:geometricPrecision; text-rendering:geometricPrecision; image-rendering:optimizeQuality; fill-rule:evenodd; clip-rule:evenodd" xmlns:xlink="http://www.w3.org/1999/xlink">
<g><path style="opacity:0.948" fill="#5c8df5" d="M 197.5,166.5 C 231.576,165.073 263.076,173.073 292,190.5C 294.351,189.286 296.851,188.452 299.5,188C 314.35,187.067 329.183,186.9 344,187.5C 363.438,185.412 382.938,184.079 402.5,183.5C 425.271,187.288 448.105,190.621 471,193.5C 485.173,189.372 499.506,186.039 514,183.5C 516.245,184.137 518.412,184.97 520.5,186C 528.656,200.484 533.822,215.984 536,232.5C 538.782,259.133 536.115,285.133 528,310.5C 528.001,326.348 529.835,342.015 533.5,357.5C 544.709,359.762 555.875,362.095 567,364.5C 570.613,347.554 574.446,330.721 578.5,314C 573.107,311.274 568.274,307.774 564,303.5C 561.01,293.638 564.843,289.305 575.5,290.5C 577.759,290.532 579.925,290.866 582,291.5C 583.486,275.697 591.986,268.864 607.5,271C 613.128,275.255 616.128,280.922 616.5,288C 611.907,318.337 607.24,348.671 602.5,379C 604.015,391.188 598.682,398.855 586.5,402C 568.156,405.835 549.823,409.668 531.5,413.5C 529.697,425.772 529.197,438.105 530,450.5C 543.58,464.346 551.747,481.012 554.5,500.5C 554.02,510.468 550.02,518.634 542.5,525C 536.028,527.074 529.695,529.408 523.5,532C 511.568,531.495 499.568,532.161 487.5,534C 473.167,534.667 458.833,534.667 444.5,534C 436.755,532.294 429.088,530.294 421.5,528C 414.169,527.599 407.003,526.432 400,524.5C 393.519,524.159 387.019,524.826 380.5,526.5C 383.964,543.701 386.798,561.034 389,578.5C 390.18,579.684 391.68,580.351 393.5,580.5C 399.82,581.155 406.153,581.655 412.5,582C 424.997,588.51 427.331,597.51 419.5,609C 417.298,610.022 414.965,610.522 412.5,610.5C 396.512,609.744 380.512,609.244 364.5,609C 360.192,607.696 357.692,604.862 357,600.5C 354.994,576.979 352.828,553.645 350.5,530.5C 340.43,529.794 330.43,530.46 320.5,532.5C 319.234,535.301 318.401,538.301 318,541.5C 316.654,562.567 314.82,583.567 312.5,604.5C 310.507,606.499 308.173,607.999 305.5,609C 287.819,609.489 270.152,609.822 252.5,610C 243.337,601.858 243.337,593.525 252.5,585C 254.5,584 256.5,583 258.5,582C 265.913,581.78 273.246,580.947 280.5,579.5C 283.326,564.881 285.493,550.215 287,535.5C 273.479,533.365 259.979,530.865 246.5,528C 232.442,527.654 218.442,526.654 204.5,525C 200.55,523.794 196.55,522.794 192.5,522C 180.088,516.629 167.755,510.963 155.5,505C 148.148,500.923 144.981,494.756 146,486.5C 143.959,487.423 141.792,487.756 139.5,487.5C 142.26,505.944 134.76,517.277 117,521.5C 109.904,520.408 105.237,516.408 103,509.5C 101.893,491.046 102.893,472.713 106,454.5C 123.947,422.721 142.28,391.054 161,359.5C 161.6,330.842 166.434,303.009 175.5,276C 163.445,245.986 161.278,215.153 169,183.5C 168.909,175.501 172.742,170.668 180.5,169C 186.43,168.951 192.097,168.118 197.5,166.5 Z M 142.5,464.5 C 152.181,448.642 161.681,432.642 171,416.5C 171.667,426.5 171.667,436.5 171,446.5C 167.646,455.523 162.646,463.523 156,470.5C 152.732,466.038 148.232,464.038 142.5,464.5 Z"/></g>
<g><path style="opacity:1" fill="#a4c0f9" d="M 195.5,174.5 C 216.957,173.537 237.957,176.037 258.5,182C 264.761,185.13 271.094,188.297 277.5,191.5C 278.747,193.006 278.747,194.506 277.5,196C 267.629,196.438 258.629,199.438 250.5,205C 248.963,206.11 248.297,207.61 248.5,209.5C 275.021,198.8 302.688,193.8 331.5,194.5C 336.182,194.634 340.849,194.967 345.5,195.5C 356.665,194.137 367.832,192.803 379,191.5C 386.827,192.668 394.66,192.668 402.5,191.5C 421.082,194.493 439.748,196.826 458.5,198.5C 458.291,199.086 457.957,199.586 457.5,200C 453.005,200.636 448.672,201.636 444.5,203C 429.336,203.352 414.336,205.018 399.5,208C 398.62,209.356 398.286,210.856 398.5,212.5C 418.439,210.124 438.439,207.624 458.5,205C 468.841,201.999 479.174,198.999 489.5,196C 497.762,194.233 506.095,193.233 514.5,193C 517.391,195.675 519.557,198.842 521,202.5C 527.929,222.519 530.596,243.185 529,264.5C 528.241,277.047 526.408,289.38 523.5,301.5C 521.833,301.5 520.167,301.5 518.5,301.5C 517.619,295.22 515.785,289.22 513,283.5C 511.192,281.157 509.026,280.49 506.5,281.5C 516.809,304.161 522.642,328.161 524,353.5C 524.457,364.502 524.957,375.502 525.5,386.5C 525.592,394.345 524.592,402.012 522.5,409.5C 523.03,411.802 523.364,414.135 523.5,416.5C 522.135,427.793 521.302,439.126 521,450.5C 518.472,461.279 515.639,471.946 512.5,482.5C 514.144,482.714 515.644,482.38 517,481.5C 520.053,474.404 522.219,467.071 523.5,459.5C 525.199,459.34 526.866,459.506 528.5,460C 540.127,472.953 545.961,488.12 546,505.5C 545.011,510.312 542.844,514.479 539.5,518C 533.57,520.421 527.57,522.421 521.5,524C 510.739,522.809 500.072,523.475 489.5,526C 473.833,526.667 458.167,526.667 442.5,526C 436.333,524.5 430.333,522.5 424.5,520C 420.833,519.667 417.167,519.333 413.5,519C 428.371,514.893 443.038,510.227 457.5,505C 461.306,502.74 464.973,500.24 468.5,497.5C 469.429,496.311 469.762,494.978 469.5,493.5C 463.449,494.686 457.449,496.186 451.5,498C 443.55,501.304 435.55,504.637 427.5,508C 416.819,510.667 406.152,513.333 395.5,516C 362.509,519.88 329.509,523.713 296.5,527.5C 278.379,525.842 260.379,523.342 242.5,520C 227.737,519.714 213.071,518.381 198.5,516C 184.083,510.637 170.083,504.303 156.5,497C 153.03,493.663 152.53,489.83 155,485.5C 157.32,481.532 159.653,477.532 162,473.5C 170.723,466.059 176.39,456.726 179,445.5C 179.667,435.833 179.667,426.167 179,416.5C 175.892,398.849 172.892,381.183 170,363.5C 169.442,342.66 171.108,321.993 175,301.5C 180.198,286.647 184.865,271.647 189,256.5C 192.333,249.833 195.667,243.167 199,236.5C 199.494,234.866 199.66,233.199 199.5,231.5C 196.348,230.959 193.848,231.959 192,234.5C 188.167,242.827 185.5,251.493 184,260.5C 182.585,263.218 180.585,263.885 178,262.5C 170.738,234.836 170.738,207.169 178,179.5C 179.701,177.59 181.867,176.423 184.5,176C 188.356,175.823 192.023,175.323 195.5,174.5 Z"/></g>
<g><path style="opacity:1" fill="#a3bff9" d="M 597.5,278.5 C 604.251,278.084 607.584,281.251 607.5,288C 603.023,321.936 597.856,355.77 592,389.5C 587.479,391.95 582.646,393.783 577.5,395C 562.56,398.585 547.56,401.752 532.5,404.5C 533.623,392.182 533.623,379.849 532.5,367.5C 545.132,368.642 557.632,370.642 570,373.5C 571.473,373.097 572.806,372.43 574,371.5C 578.958,352.003 583.124,332.336 586.5,312.5C 586.43,311.228 586.097,310.062 585.5,309C 580.606,305.952 575.273,304.119 569.5,303.5C 569.261,301.533 569.594,299.699 570.5,298C 574.783,297.373 578.949,297.873 583,299.5C 586.743,299.417 589.41,297.751 591,294.5C 591.231,290.416 591.898,286.416 593,282.5C 594.667,281.267 596.167,279.933 597.5,278.5 Z"/></g>
<g><path style="opacity:1" fill="#5e8ff6" d="M 291.5,299.5 C 296.675,298.507 298.509,300.507 297,305.5C 293.081,307.876 289.248,310.376 285.5,313C 281,313.833 279.167,312 280,307.5C 283.812,304.688 287.646,302.021 291.5,299.5 Z"/></g>
<g><path style="opacity:1" fill="#5e8ff6" d="M 366.5,301.5 C 373.042,302.523 378.875,305.189 384,309.5C 385.5,314.667 383.667,316.5 378.5,315C 375.938,312.587 372.938,310.92 369.5,310C 365.798,307.997 364.798,305.164 366.5,301.5 Z"/></g>
<g><path style="opacity:1" fill="#5a8cf6" d="M 301.5,321.5 C 309.692,322.171 315.192,326.504 318,334.5C 322.245,348.421 320.911,361.754 314,374.5C 307.278,381.451 300.945,381.118 295,373.5C 288.545,359.792 287.878,345.792 293,331.5C 294.978,327.362 297.811,324.029 301.5,321.5 Z"/></g>
<g><path style="opacity:1" fill="#5a8cf6" d="M 362.5,321.5 C 368.47,320.964 372.97,323.298 376,328.5C 383.565,343.959 383.231,359.292 375,374.5C 368.278,381.451 361.945,381.118 356,373.5C 349.545,359.792 348.878,345.792 354,331.5C 356.15,327.497 358.984,324.164 362.5,321.5 Z"/></g>
<g><path style="opacity:1" fill="#a3bff9" d="M 162.5,374.5 C 163.748,375.334 164.415,376.667 164.5,378.5C 165.617,387.232 166.784,395.899 168,404.5C 160.582,415.661 153.916,427.327 148,439.5C 143.346,446.129 138.679,452.796 134,459.5C 132.401,462.991 132.234,466.491 133.5,470C 137.77,471.254 142.104,472.254 146.5,473C 147.428,473.388 148.095,474.055 148.5,475C 143.081,477.906 137.581,480.739 132,483.5C 131.079,490.475 130.412,497.475 130,504.5C 116.571,517.125 110.071,514.125 110.5,495.5C 111.681,482.856 112.681,470.189 113.5,457.5C 129.263,429.61 145.596,401.944 162.5,374.5 Z"/></g>
<g><path style="opacity:1" fill="#5d8ef6" d="M 292.5,415.5 C 296.866,415.023 299.866,416.856 301.5,421C 321.862,428.176 342.529,429.176 363.5,424C 368.123,421.032 372.956,418.532 378,416.5C 380.5,416.333 381.667,417.5 381.5,420C 381.415,421.107 381.081,422.107 380.5,423C 368.978,430.951 356.144,435.118 342,435.5C 327.062,435.324 312.562,432.824 298.5,428C 296,426.167 293.833,424 292,421.5C 291.322,419.402 291.489,417.402 292.5,415.5 Z"/></g>
<g><path style="opacity:1" fill="#a2bdf7" d="M 365.5,525.5 C 368.206,525.575 370.873,525.908 373.5,526.5C 376.368,542.459 379.201,558.459 382,574.5C 382.497,578.524 382.331,582.524 381.5,586.5C 389.475,587.199 397.475,587.699 405.5,588C 409.159,589.28 412.659,590.78 416,592.5C 416.499,596.152 416.665,599.818 416.5,603.5C 399.253,603.366 382.086,602.7 365,601.5C 362.3,578.058 359.8,554.558 357.5,531C 357.735,530.127 358.069,529.293 358.5,528.5C 361.295,528.062 363.628,527.062 365.5,525.5 Z"/></g>
<g><path style="opacity:1" fill="#a3bef8" d="M 294.5,536.5 C 300.155,537.673 305.821,537.673 311.5,536.5C 309.825,554.474 308.325,572.474 307,590.5C 306.718,594.488 305.885,598.321 304.5,602C 288.302,602.188 272.135,602.688 256,603.5C 255.055,603.095 254.388,602.428 254,601.5C 253.333,598.5 253.333,595.5 254,592.5C 257.341,590.78 260.841,589.28 264.5,588C 272.525,587.699 280.525,587.199 288.5,586.5C 288.567,584.599 288.233,582.766 287.5,581C 290.717,566.299 293.051,551.466 294.5,536.5 Z"/></g>
</svg>
