<?xml version="1.0" encoding="UTF-8"?>
<!DOCTYPE svg PUBLIC "-//W3C//DTD SVG 1.1//EN" "http://www.w3.org/Graphics/SVG/1.1/DTD/svg11.dtd">
<svg xmlns="http://www.w3.org/2000/svg" version="1.1" width="700px" height="700px" style="shape-rendering:geometricPrecision; text-rendering:geometricPrecision; image-rendering:optimizeQuality; fill-rule:evenodd; clip-rule:evenodd" xmlns:xlink="http://www.w3.org/1999/xlink">
<g><path style="opacity:0.943" fill="#ec7531" d="M 482.5,165.5 C 493.851,166.003 505.184,166.837 516.5,168C 520.232,168.974 523.732,170.474 527,172.5C 530.98,190.95 533.646,209.616 535,228.5C 546.262,238.428 555.262,250.095 562,263.5C 576.731,291.295 591.731,318.961 607,346.5C 609,351.167 609,355.833 607,360.5C 603.85,363.979 600.35,367.146 596.5,370C 574.053,381.49 551.553,392.99 529,404.5C 526.832,417.927 526.499,431.26 528,444.5C 531.356,454.861 537.022,463.861 545,471.5C 550.176,478.357 552.509,486.024 552,494.5C 550.623,496.754 549.123,498.92 547.5,501C 532.757,509.439 517.424,516.439 501.5,522C 482.185,524.146 462.851,526.146 443.5,528C 432.914,529.95 422.414,532.117 412,534.5C 414.213,548.727 416.213,563.061 418,577.5C 419.18,578.684 420.68,579.351 422.5,579.5C 428.487,580.142 434.487,580.642 440.5,581C 453.887,586.975 456.554,595.975 448.5,608C 446.298,609.022 443.965,609.522 441.5,609.5C 425.512,608.744 409.512,608.244 393.5,608C 389.192,606.696 386.692,603.862 386,599.5C 384.328,578.127 382.328,556.793 380,535.5C 379.034,532.801 377.2,530.967 374.5,530C 366.065,529.903 357.732,529.07 349.5,527.5C 347.871,545.606 346.371,563.939 345,582.5C 344.378,589.943 343.211,597.276 341.5,604.5C 339.664,605.919 337.664,607.086 335.5,608C 319.488,608.244 303.488,608.744 287.5,609.5C 279.975,609.168 275.975,605.168 275.5,597.5C 276.254,589.239 280.588,583.739 288.5,581C 294.513,580.642 300.513,580.142 306.5,579.5C 308.32,579.351 309.82,578.684 311,577.5C 313.599,559.745 316.266,542.079 319,524.5C 312.661,522.972 306.328,522.305 300,522.5C 285.124,525.276 270.291,528.442 255.5,532C 244.339,533.385 233.172,533.885 222,533.5C 211.951,532.162 201.951,530.829 192,529.5C 185.204,531.757 178.371,531.59 171.5,529C 155.231,525.896 146.564,516.063 145.5,499.5C 148.095,479.132 156.762,461.965 171.5,448C 170.274,437.575 169.274,427.075 168.5,416.5C 146.531,405.182 124.531,393.849 102.5,382.5C 94.9254,377.831 92.4254,371.165 95,362.5C 112.5,330.401 129.833,298.401 147,266.5C 151.1,260.001 155.933,254.001 161.5,248.5C 163.18,239.57 164.347,230.57 165,221.5C 168.394,208.754 173.227,196.587 179.5,185C 183.039,183.496 186.705,183.163 190.5,184C 203.386,186.743 216.22,189.577 229,192.5C 248.305,190.614 267.471,187.781 286.5,184C 293.5,183.833 300.5,183.667 307.5,183.5C 323.546,183.744 339.546,184.744 355.5,186.5C 372.813,185.455 389.979,186.455 407,189.5C 419.623,183.212 432.456,177.379 445.5,172C 457.878,169.308 470.211,167.141 482.5,165.5 Z M 526.5,272.5 C 537.692,295.895 548.692,319.561 559.5,343.5C 551.942,344.813 544.442,344.813 537,343.5C 535.425,320.376 530.925,297.876 523.5,276C 524.071,274.401 525.071,273.234 526.5,272.5 Z M 168.5,300.5 C 170.638,305.319 171.971,310.486 172.5,316C 170.709,329.495 168.876,342.995 167,356.5C 166.5,357 166,357.5 165.5,358C 157.844,358.944 150.178,359.277 142.5,359C 151.605,339.63 160.271,320.13 168.5,300.5 Z"/></g>
<g><path style="opacity:1" fill="#f2b787" d="M 471.5,173.5 C 487.916,172.992 504.249,173.825 520.5,176C 524.797,192.171 526.797,208.671 526.5,225.5C 516.713,224.458 511.88,228.791 512,238.5C 514.032,242.73 516.198,246.896 518.5,251C 517.312,252.944 515.646,254.444 513.5,255.5C 510.034,248.318 506.868,240.984 504,233.5C 502.815,231.441 501.648,231.274 500.5,233C 504.607,240.564 507.941,248.564 510.5,257C 509.349,258.823 508.182,260.656 507,262.5C 506.333,264.167 506.333,265.833 507,267.5C 510.14,271.061 513.473,274.395 517,277.5C 526.771,305.275 531.104,333.942 530,363.5C 529.07,368.29 527.736,372.956 526,377.5C 525.565,386.01 523.732,394.177 520.5,402C 521.087,404.625 521.42,407.292 521.5,410C 517.659,426.739 519.159,442.906 526,458.5C 532.769,465.934 538.769,473.934 544,482.5C 546.704,488.079 545.87,492.912 541.5,497C 533.495,500.439 525.828,504.439 518.5,509C 511.59,511.622 504.59,513.956 497.5,516C 472.238,516.846 447.238,519.846 422.5,525C 404.95,527.413 387.617,526.413 370.5,522C 363.833,521.667 357.167,521.333 350.5,521C 348.122,520.489 345.788,519.822 343.5,519C 331.117,518.523 318.784,517.523 306.5,516C 302.637,514.268 298.637,512.934 294.5,512C 285.93,509.953 277.263,508.286 268.5,507C 256.311,500.731 243.644,495.898 230.5,492.5C 230.281,493.675 230.614,494.675 231.5,495.5C 234.699,497.864 238.032,500.03 241.5,502C 254.882,507.127 268.549,511.46 282.5,515C 283.759,515.923 285.092,516.757 286.5,517.5C 282.878,518.325 279.211,518.825 275.5,519C 269.938,522.187 263.938,524.187 257.5,525C 241.5,525.667 225.5,525.667 209.5,525C 197.548,523.775 185.548,523.109 173.5,523C 168.124,520.597 162.791,518.097 157.5,515.5C 154.603,510.589 152.937,505.255 152.5,499.5C 154.337,483.809 160.337,469.976 170.5,458C 172.579,457.192 174.579,457.359 176.5,458.5C 178.937,465.049 181.103,471.716 183,478.5C 183.669,481.267 184.836,481.767 186.5,480C 183.218,470.276 180.384,460.443 178,450.5C 175.957,419.494 174.624,388.494 174,357.5C 175.77,333.868 180.437,310.868 188,288.5C 193.959,286.579 196.292,282.579 195,276.5C 191.445,272.608 187.612,269.108 183.5,266C 184.953,262.928 186.787,260.095 189,257.5C 192.698,244.53 187.865,239.03 174.5,241C 173.034,241.635 171.7,242.469 170.5,243.5C 170.442,226.897 173.942,210.897 181,195.5C 182.167,194.333 183.333,193.167 184.5,192C 188.167,191.333 191.833,191.333 195.5,192C 203.433,193.883 211.433,195.55 219.5,197C 225.727,199.277 232.06,201.277 238.5,203C 257.783,206.048 277.116,208.548 296.5,210.5C 297.833,210.167 299.167,209.833 300.5,209.5C 300.291,208.914 299.957,208.414 299.5,208C 281.162,204.969 262.829,202.636 244.5,201C 241.553,200.888 240.22,199.388 240.5,196.5C 256.324,196.137 271.99,194.304 287.5,191C 298.355,191.04 309.188,190.873 320,190.5C 331.449,190.919 342.783,192.252 354,194.5C 381.308,192.227 408.142,194.727 434.5,202C 439.419,202.948 443.919,204.782 448,207.5C 449.563,206.898 449.396,206.065 447.5,205C 439.145,200.161 430.145,197.327 420.5,196.5C 420.5,194.167 420.5,191.833 420.5,189.5C 426.937,186.896 433.27,184.063 439.5,181C 450.236,178.09 460.903,175.59 471.5,173.5 Z"/></g>
<g><path style="opacity:1" fill="#f2b686" d="M 519.5,232.5 C 522.187,232.336 524.854,232.503 527.5,233C 535.696,238.53 542.53,245.363 548,253.5C 561.892,280.995 576.559,307.995 592,334.5C 595.13,340.731 597.963,347.065 600.5,353.5C 599.897,356.622 598.23,359.122 595.5,361C 574.598,372.126 553.598,382.96 532.5,393.5C 530.649,385.386 531.816,377.719 536,370.5C 536.424,364.485 536.924,358.485 537.5,352.5C 547.506,352.666 557.506,352.5 567.5,352C 568.574,351.261 569.241,350.261 569.5,349C 568.294,345.147 567.127,341.314 566,337.5C 554.244,312.033 542.411,286.7 530.5,261.5C 526.712,263.962 522.712,265.962 518.5,267.5C 516.275,267.695 514.609,266.861 513.5,265C 515.334,261.166 518.334,258.833 522.5,258C 524.188,256.312 525.855,254.645 527.5,253C 524.715,248.197 521.882,243.364 519,238.5C 518.322,236.402 518.489,234.402 519.5,232.5 Z"/></g>
<g><path style="opacity:1" fill="#f2b685" d="M 177.5,246.5 C 179.199,246.34 180.866,246.506 182.5,247C 183.622,250.485 183.456,253.985 182,257.5C 179.375,260.594 176.875,263.76 174.5,267C 179,271.503 183.666,275.836 188.5,280C 187.391,281.861 185.725,282.695 183.5,282.5C 179.511,280.84 175.511,279.173 171.5,277.5C 170.914,277.709 170.414,278.043 170,278.5C 163.036,294.814 156.036,311.147 149,327.5C 142.16,339.003 136.66,351.17 132.5,364C 133.272,365.221 134.272,366.221 135.5,367C 145.5,367.25 155.5,367.084 165.5,366.5C 164.599,375.663 166.099,384.33 170,392.5C 170.567,397.834 171.067,403.167 171.5,408.5C 150.804,398.432 130.137,388.265 109.5,378C 101.536,372.401 100.369,365.568 106,357.5C 115.593,341.932 124.259,325.932 132,309.5C 140.805,293.897 149.639,278.231 158.5,262.5C 162.627,258.538 166.627,254.371 170.5,250C 173.442,249.856 175.776,248.689 177.5,246.5 Z"/></g>
<g><path style="opacity:1" fill="#f2b382" d="M 173.5,286.5 C 177.423,287.683 181.423,288.683 185.5,289.5C 183.631,292.94 182.465,296.607 182,300.5C 179.959,301.423 177.792,301.756 175.5,301.5C 174.833,296.5 174.167,291.5 173.5,286.5 Z"/></g>
<g><path style="opacity:1" fill="#ec7833" d="M 323.5,306.5 C 328.714,305.711 330.714,307.711 329.5,312.5C 315.791,313.896 303.791,319.063 293.5,328C 288.9,329.583 287.066,328.083 288,323.5C 298.288,314.438 310.121,308.771 323.5,306.5 Z"/></g>
<g><path style="opacity:1" fill="#ec7733" d="M 389.5,306.5 C 404.817,307.99 418.317,313.657 430,323.5C 430.934,328.083 429.1,329.583 424.5,328C 414.268,319.914 402.602,314.914 389.5,313C 388.232,310.837 388.232,308.67 389.5,306.5 Z"/></g>
<g><path style="opacity:1" fill="#ec752f" d="M 325.5,329.5 C 335.143,329.971 340.976,334.971 343,344.5C 344.35,354.795 340.85,362.962 332.5,369C 322.65,370.508 316.484,366.341 314,356.5C 311.352,344.487 315.185,335.487 325.5,329.5 Z"/></g>
<g><path style="opacity:1" fill="#ec7530" d="M 390.5,329.5 C 399.348,329.835 405.182,334.168 408,342.5C 410.744,353.61 407.578,362.443 398.5,369C 391.989,370.874 386.822,369.041 383,363.5C 375.132,349.703 377.632,338.37 390.5,329.5 Z"/></g>
<g><path style="opacity:1" fill="#ec752f" d="M 356.5,390.5 C 365.915,389.791 373.082,393.457 378,401.5C 379.246,418.246 371.413,425.413 354.5,423C 344.268,418.035 341.101,410.201 345,399.5C 348.183,395.462 352.016,392.462 356.5,390.5 Z"/></g>
<g><path style="opacity:1" fill="#f2b686" d="M 330.5,524.5 C 333.723,526.61 337.39,527.61 341.5,527.5C 340.448,551.16 338.281,574.827 335,598.5C 334.5,599 334,599.5 333.5,600C 317.776,600.329 302.11,601.162 286.5,602.5C 282.852,599.095 282.519,595.261 285.5,591C 286.833,590.333 288.167,589.667 289.5,589C 299.011,587.478 308.511,586.312 318,585.5C 319.595,569.176 321.928,552.843 325,536.5C 326.423,532.235 328.256,528.235 330.5,524.5 Z"/></g>
<g><path style="opacity:1" fill="#f2b686" d="M 387.5,535.5 C 393.204,536.414 398.871,536.414 404.5,535.5C 405.949,550.466 408.283,565.299 411.5,580C 410.591,581.789 410.424,583.623 411,585.5C 421.272,586.139 431.438,587.639 441.5,590C 446.332,593.949 446.665,598.115 442.5,602.5C 426.89,601.162 411.224,600.329 395.5,600C 395,599.5 394.5,599 394,598.5C 391.709,577.528 389.543,556.528 387.5,535.5 Z"/></g>
</svg>
